<svg xmlns="http://www.w3.org/2000/svg" width="20" height="20" viewBox="0 0 20 20">
    <g fill="none" fill-rule="evenodd">
        <g>
            <g>
                <path fill="#333" d="M15 8c1.657 0 3 1.343 3 3v6c0 1.657-1.343 3-3 3H6c-1.657 0-3-1.343-3-3v-6c0-1.657 1.343-3 3-3h9zm-4.5 4c-.828 0-1.5.672-1.5 1.5s.672 1.5 1.5 1.5 1.5-.672 1.5-1.5-.672-1.5-1.5-1.5z" transform="translate(-951.000000, -439.000000) translate(951.000000, 439.000000)"/>
                <path stroke="#333" stroke-width="2" d="M6 8.5v-3C6 3.015 8.015 1 10.5 1S15 3.015 15 5.5v3" transform="translate(-951.000000, -439.000000) translate(951.000000, 439.000000)"/>
                <path d="M0 0H20V20H0z" transform="translate(-951.000000, -439.000000) translate(951.000000, 439.000000)"/>
            </g>
        </g>
    </g>
</svg>
