<svg xmlns="http://www.w3.org/2000/svg" width="14" height="14" viewBox="0 0 14 14">
    <g fill="none" fill-rule="evenodd">
        <g>
            <g>
                <path fill="#999" d="M9.154 1c.297 0 .538.244.538.545v.546h3.231c.595 0 1.077.488 1.077 1.09v8.728c0 .603-.482 1.091-1.077 1.091H1.077C.482 13 0 12.512 0 11.91V3.181C0 2.579.482 2.09 1.077 2.09h3.23v-.546c0-.3.242-.545.54-.545h4.307z" transform="translate(-80 -294) translate(80 294)"/>
                <path fill="#FFF" d="M4.5 8C5.88 8 7 8.74 7 9.652V10H2v-.348C2 8.74 3.12 8 4.5 8zM11 9v1H8V9h3zm0-2v1H8V7h3zM4.5 5C5.328 5 6 5.672 6 6.5S5.328 8 4.5 8 3 7.328 3 6.5 3.672 5 4.5 5zM11 5v1H8V5h3z" transform="translate(-80 -294) translate(80 294)"/>
            </g>
        </g>
    </g>
</svg>
