<?xml version="1.0" encoding="UTF-8"?>
<svg width="25px" height="25px" viewBox="0 0 25 25" version="1.1" xmlns="http://www.w3.org/2000/svg" xmlns:xlink="http://www.w3.org/1999/xlink">
    <title>63B74D34-2526-49ED-8799-BEEF758573AD</title>
    <g id="Dashboard-style-guide" stroke="none" stroke-width="1" fill="none" fill-rule="evenodd">
        <g id="Dashboard_ICONS" transform="translate(-970.000000, -981.000000)">
            <g id="Group-3" transform="translate(900.000000, 980.000000)">
                <g id="icon_grade_3" transform="translate(70.000000, 1.000000)">
                    <path d="M7,0 L18,0 L18,5 L12.5,8 L7,5 L7,0 Z" id="Combined-Shape" fill="#3299FE"></path>
                    <polygon id="Path" fill="#FFFFFF" points="14 0 14 6.455 12.5 7 11 6.455 11 0"></polygon>
                    <g id="badge" transform="translate(2.000000, 4.000000)" fill="#FFC321" fill-rule="nonzero">
                        <path d="M11.7493006,0.448625626 L13.4582736,1.85730677 C13.7603536,2.10630264 14.1299573,2.25934289 14.5193295,2.29688105 L16.723847,2.50900508 C17.6598507,2.59918558 18.4006129,3.3399537 18.4907927,4.27596484 L18.7031372,6.48049977 C18.740675,6.87009715 18.8937141,7.23970381 19.142708,7.54156407 L20.5513779,9.25055069 C21.1495407,9.97621469 21.1495407,11.0237298 20.5513779,11.7493938 L19.142708,13.4583804 C18.8937141,13.7602407 18.740675,14.1298473 18.7031372,14.5194447 L18.4907927,16.7239796 C18.4006129,17.6599908 17.6598507,18.4007589 16.723847,18.4909394 L14.5193295,18.7032855 C14.1297352,18.7408237 13.7603536,18.893864 13.4582736,19.1426377 L11.7493006,20.551541 C11.0238644,21.1494863 9.97613555,21.1494863 9.25047731,20.551541 L7.54172636,19.1426377 C7.23964638,18.893864 6.87004265,18.7408237 6.48044836,18.7032855 L4.27615303,18.4909394 C3.34014937,18.4007589 2.59916497,17.6599908 2.50920728,16.7239796 L2.29686283,14.5194447 C2.25932497,14.1298473 2.10628594,13.7602407 1.85729203,13.4583804 L0.448622068,11.7493938 C-0.149540689,11.0239519 -0.149540689,9.97621469 0.448622068,9.25055069 L1.85729203,7.54178618 C2.10628594,7.23970381 2.25932497,6.87009715 2.29686283,6.48049977 L2.50898518,4.27596484 C2.59916497,3.34017587 3.33992721,2.59918558 4.27593092,2.50922719 L6.48044836,2.29688105 C6.87004265,2.25934289 7.23964638,2.10630264 7.54150425,1.85730677 L9.25047731,0.448625626 C9.97613555,-0.149541875 11.0238644,-0.149541875 11.7493006,0.448625626 Z" id="Path"></path>
                    </g>
                    <g id="Group-5-Copy-14" transform="translate(4.000000, 6.000000)">
                        <g id="Group-4" fill="#FFD45F">
                            <circle id="Oval" cx="8.5" cy="8.5" r="8.5"></circle>
                        </g>
                        <circle id="Oval" stroke="#FFC321" fill="#FFE458" cx="8.5" cy="8.5" r="5.5"></circle>
                        <polygon id="Path" fill="#FFBA00" fill-rule="nonzero" points="9.42613636 7.47178423 8.5 5.5 7.57291667 7.47178423 5.5 7.79045643 6.99810606 9.32705394 6.64488636 11.5 8.5 10.4752697 10.3551136 11.5 10.0018939 9.32705394 11.5 7.79045643"></polygon>
                        <path d="M8.5,4 C9.73351108,4 10.8511037,4.49630584 11.6639816,5.30012115 L5.30012115,11.6639816 C4.49630584,10.8511037 4,9.73351108 4,8.5 C4,6.01471863 6.01471863,4 8.5,4 Z" id="Combined-Shape" fill-opacity="0.4" fill="#FFFFFF"></path>
                    </g>
                </g>
            </g>
        </g>
    </g>
</svg>