<?xml version="1.0" encoding="UTF-8"?>
<svg width="25px" height="25px" viewBox="0 0 25 25" version="1.1" xmlns="http://www.w3.org/2000/svg" xmlns:xlink="http://www.w3.org/1999/xlink">
    <title>F095F983-85BA-4AAE-AB5F-C08F3EB511CF</title>
    <g id="Dashboard-style-guide" stroke="none" stroke-width="1" fill="none" fill-rule="evenodd">
        <g id="Dashboard_ICONS" transform="translate(-900.000000, -981.000000)">
            <g id="Group-3" transform="translate(900.000000, 980.000000)">
                <g id="icon_grade_1" transform="translate(0.000000, 0.500000)">
                    <rect id="Rectangle-Copy-13" fill="#88D4E2" x="5" y="5.5" width="16" height="16"></rect>
                    <polygon id="Rectangle-Copy-15" fill="#AAF6FD" points="13 2.5 24 13.5 13 24.5 2 13.5"></polygon>
                    <polygon id="Rectangle-Copy-16" fill="#8BE8F4" points="24 13.5 13 24.5 2 13.5"></polygon>
                    <polygon id="Path-6-Copy" fill="#C1FAFF" points="13 2.5 13 13.5 2 13.5"></polygon>
                    <path d="M13,7.52817468 L16.5830952,13.5 L13,19.4718253 L9.41690481,13.5 L13,7.52817468 Z" id="Rectangle-Copy-12" stroke="#FFFFFF" fill="#8C4CF6"></path>
                    <polygon id="Path-4" fill-opacity="0.5" fill="#FFFFFF" points="13 8.5 10 13.5 13 13.5"></polygon>
                    <polygon id="Path-4" fill-opacity="0.25" fill="#FFFFFF" transform="translate(14.500000, 11.000000) scale(-1, 1) translate(-14.500000, -11.000000) " points="16 8.5 13 13.5 16 13.5"></polygon>
                    <polygon id="Path-4-Copy" fill-opacity="0.15" fill="#FFFFFF" transform="translate(11.500000, 16.000000) scale(1, -1) translate(-11.500000, -16.000000) " points="13 13.5 10 18.5 13 18.5"></polygon>
                    <path d="M24,14.5 C24.5522847,14.5 25,14.0522847 25,13.5 C25,12.9477153 24.5522847,12.5 24,12.5 C23.4477153,12.5 23,12.9477153 23,13.5 C23,14.0522847 23.4477153,14.5 24,14.5 Z" id="Oval" fill="#8BE8F4"></path>
                    <path d="M2,14.5 C2.55228475,14.5 3,14.0522847 3,13.5 C3,12.9477153 2.55228475,12.5 2,12.5 C1.44771525,12.5 1,12.9477153 1,13.5 C1,14.0522847 1.44771525,14.5 2,14.5 Z" id="Oval-Copy-7" fill="#8BE8F4"></path>
                    <path d="M13,3.5 C13.5522847,3.5 14,3.05228475 14,2.5 C14,1.94771525 13.5522847,1.5 13,1.5 C12.4477153,1.5 12,1.94771525 12,2.5 C12,3.05228475 12.4477153,3.5 13,3.5 Z" id="Oval" fill="#8BE8F4"></path>
                    <path d="M13,25.5 C13.5522847,25.5 14,25.0522847 14,24.5 C14,23.9477153 13.5522847,23.5 13,23.5 C12.4477153,23.5 12,23.9477153 12,24.5 C12,25.0522847 12.4477153,25.5 13,25.5 Z" id="Oval-Copy-8" fill="#8BE8F4"></path>
                </g>
            </g>
        </g>
    </g>
</svg>