<svg xmlns="http://www.w3.org/2000/svg" width="25" height="25" viewBox="0 0 25 25">
    <g fill="none" fill-rule="evenodd">
        <g>
            <g>
                <g>
                    <g>
                        <path fill="#FC0" d="M1 3.556L6.218 8.222 10.056 2 13.871 8.222 19 3.556 17 16 3 16z" transform="translate(-935 -981) translate(900 980) translate(35 1) translate(3 2)"/>
                        <path fill="#FFD933" d="M10 2.09V16H3L1 3.556l5.218 4.666L10 2.09z" transform="translate(-935 -981) translate(900 980) translate(35 1) translate(3 2)"/>
                        <path fill="#FC0" d="M3 16H17V19H3z" transform="translate(-935 -981) translate(900 980) translate(35 1) translate(3 2)"/>
                        <path fill="#FF5757" d="M3 19H17V20H3z" transform="translate(-935 -981) translate(900 980) translate(35 1) translate(3 2)"/>
                        <path fill="#FC0" d="M1 4c.552 0 1-.448 1-1s-.448-1-1-1-1 .448-1 1 .448 1 1 1zM10 2.154c.552 0 1-.448 1-1s-.448-1-1-1-1 .448-1 1 .448 1 1 1zM18.8 4c.552 0 1-.448 1-1s-.448-1-1-1-1 .448-1 1 .448 1 1 1z" transform="translate(-935 -981) translate(900 980) translate(35 1) translate(3 2)"/>
                    </g>
                    <path fill="#F64C4C" fill-rule="nonzero" stroke="#FFBA00" d="M13 10.824l1.265 2.694 2.771.426-2 2.052.478 2.939L13 17.546l-2.514 1.389.478-2.94-2-2.051 2.77-.426L13 10.824z" transform="translate(-935 -981) translate(900 980) translate(35 1)"/>
                    <path fill="#FFF" fill-opacity=".3" fill-rule="nonzero" d="M13 12v3l-1.508.861.006-.034L10 14.29l2.073-.318L13 12z" transform="translate(-935 -981) translate(900 980) translate(35 1)"/>
                </g>
            </g>
        </g>
    </g>
</svg>
